<svg id="Слой_1" data-name="Слой 1" xmlns="http://www.w3.org/2000/svg" viewBox="0 0 812.629 495.455"><defs><style>.cls-1{fill:#fff;}.cls-2{fill:#231f20;}</style></defs><title>logo</title><rect class="cls-1" y="81.689" width="278.374" height="278.374" rx="64" ry="64"/><path class="cls-2" d="M-121.594,203.927v71.12l4.5-4.5h-52.99l4.5,4.5v-8.13a4.55,4.55,0,0,0-7.682-3.182l-18.74,18.74h6.364l-37.45-37.46v6.364l.06-.06a4.587,4.587,0,0,0,0-6.364,50.5,50.5,0,0,1-13.562-34.245c-.054-5.2,0-10.4,0-15.592V156.927l-4.5,4.5h36l-4.5-4.5v32.466c0,12.127-2.3,26.331,5.668,36.446,1.507,1.912,4.8,1.56,6.364,0l1.19-1.19h-6.364c2.521,2.521,5.09,6.133,8.406,7.577,6.506,2.833,15.006.853,20.508-3.177,4.3-3.153,8.081-8.1,8.238-13.573.111-3.843,0-7.7,0-11.549l-4.5,4.5h.99a4.565,4.565,0,0,0,4.5-4.5v-47l-4.5,4.5h36l-4.5-4.5v47a4.565,4.565,0,0,0,4.5,4.5h16c5.791,0,5.8-9,0-9h-16l4.5,4.5v-47a4.565,4.565,0,0,0-4.5-4.5h-36a4.565,4.565,0,0,0-4.5,4.5v47l4.5-4.5h-.99a4.565,4.565,0,0,0-4.5,4.5v7.881c0,4.049.041,5.685-3.059,8.757a13.354,13.354,0,0,1-7.175,3.657,38.185,38.185,0,0,1-3.849.137q-2.751-1.2-1.379.253l-.262-.262c-2.229-1.424-4.183-4.183-6.064-6.064a4.569,4.569,0,0,0-6.364,0l-1.19,1.19h6.364c-3.415-4.334-3.032-9.254-3.032-14.361V156.927a4.565,4.565,0,0,0-4.5-4.5h-36a4.565,4.565,0,0,0-4.5,4.5v40.88c0,4.92-.126,9.858.025,14.777A59.539,59.539,0,0,0-229.4,251.319v-6.364l-.06.06a4.569,4.569,0,0,0,0,6.364l37.45,37.46a4.569,4.569,0,0,0,6.364,0l18.74-18.74-7.682-3.182v8.13a4.565,4.565,0,0,0,4.5,4.5h52.99a4.565,4.565,0,0,0,4.5-4.5v-71.12C-112.594,198.136-121.594,198.126-121.594,203.927Z" transform="translate(308.281 -8.051)"/><polygon class="cls-1" points="139.187 184.876 103.187 184.876 103.187 185.336 67.187 149.326 67.187 148.876 103.187 148.876 139.187 184.876"/><path class="cls-2" d="M-169.094,188.427h-36a4.565,4.565,0,0,0-4.5,4.5v.46l7.682-3.182-36-36.01,1.318,3.182v-.45l-4.5,4.5h36l-3.182-1.318,36,36c4.1,4.1,10.466-2.261,6.364-6.364l-27.08-27.08c-2.912-2.912-6.15-7.6-9.831-9.624-1.818-1-4.488-.614-6.479-.614h-31.792a4.565,4.565,0,0,0-4.5,4.5c0,3.22,3.019,5.333,5.11,7.425l12.458,12.461,19.751,19.756a4.55,4.55,0,0,0,7.682-3.182v-.46l-4.5,4.5h36C-163.3,197.427-163.293,188.427-169.094,188.427Z" transform="translate(308.281 -8.051)"/><path class="cls-1" d="M-97.094,192.927v54a54,54,0,0,1-54,54,54,54,0,0,1-54-54v-54h36v54a18,18,0,0,0,18,18,18,18,0,0,0,18-18v-54Z" transform="translate(308.281 -8.051)"/><path class="cls-2" d="M-101.594,192.927v40c0,4.9.075,9.8-.009,14.7a49.6,49.6,0,0,1-13.144,32.9,50.023,50.023,0,0,1-65.859,6.169,49.885,49.885,0,0,1-18.909-29.426c-1.333-6.121-1.079-12.371-1.079-18.593V192.927l-4.5,4.5h36l-4.5-4.5V240.79c0,3.736-.245,7.611.595,11.279,4.476,19.545,31.833,23.356,41.542,5.847,4.773-8.607,2.863-21.129,2.863-30.575V192.927l-4.5,4.5h36c5.791,0,5.8-9,0-9h-36a4.565,4.565,0,0,0-4.5,4.5c0,17.784.473,35.632,0,53.408-.169,6.346-3.7,12.016-10.124,13.655-8.719,2.224-16.507-4.411-16.876-13.075-.346-8.132,0-16.353,0-24.491v-29.5a4.565,4.565,0,0,0-4.5-4.5h-36a4.565,4.565,0,0,0-4.5,4.5V237.14c0,6.656-.2,13.276.894,19.873a58.148,58.148,0,0,0,18.117,33.066c19.439,17.668,49.352,20.385,71.408,5.867a59.5,59.5,0,0,0,23.144-29.258c2.887-7.885,3.438-16.042,3.438-24.338V192.927C-92.594,187.136-101.594,187.126-101.594,192.927Z" transform="translate(308.281 -8.051)"/><polygon class="cls-1" points="211.187 184.876 175.187 184.876 175.187 185.336 139.187 149.326 139.187 148.876 175.187 148.876 211.187 184.876"/><path class="cls-2" d="M-97.094,188.427h-36a4.565,4.565,0,0,0-4.5,4.5v.46l7.682-3.182-36-36.01,1.318,3.182v-.45l-4.5,4.5h36l-3.182-1.318,36,36c4.1,4.1,10.466-2.261,6.364-6.364l-27.08-27.08c-2.912-2.912-6.15-7.6-9.831-9.624-1.818-1-4.488-.614-6.479-.614h-31.792a4.565,4.565,0,0,0-4.5,4.5c0,3.22,3.019,5.333,5.11,7.425l12.458,12.461,19.751,19.756a4.55,4.55,0,0,0,7.682-3.182v-.46l-4.5,4.5h36C-91.3,197.427-91.293,188.427-97.094,188.427Z" transform="translate(308.281 -8.051)"/><path class="cls-2" d="M417.5,173.708v234.1l10.5-10.5H253.575l10.5,10.5V381.05c0-9.092-11.49-13.859-17.925-7.425l-53.955,53.955-7.731,7.731h14.849L157.81,393.8l-66.562-66.58L76.041,312.006v14.849l.2-.2a10.692,10.692,0,0,0,0-14.849,168.346,168.346,0,0,1-44.422-91.987c-1.94-13.863-1.483-27.977-1.483-41.943V19l-10.5,10.5h118.5L127.833,19V187.927c0,2.9-.029,5.8,0,8.7.172,17.259,6.367,32.988,17.394,46.154,3.645,4.352,11.113,3.736,14.849,0l3.917-3.917H149.145l18.7,18.7c4.871,4.871,10.845,6.69,17.631,7.823a71.369,71.369,0,0,0,30.453-1.329,70.562,70.562,0,0,0,41.1-30.838c3.278-5.29,6.87-11.829,7.046-18.135.115-4.118,0-8.257,0-12.376v-29l-10.5,10.5h3.259a10.653,10.653,0,0,0,10.5-10.5V19l-10.5,10.5h118.5L364.833,19V173.708a10.653,10.653,0,0,0,10.5,10.5H428c13.512,0,13.535-21,0-21H375.333l10.5,10.5V19a10.653,10.653,0,0,0-10.5-10.5h-118.5a10.653,10.653,0,0,0-10.5,10.5V173.708l10.5-10.5h-3.259a10.653,10.653,0,0,0-10.5,10.5v19.229c0,7.346,1.012,15.535,0,22.827-.167,1.2.385-1.791-.094-1.111a33.821,33.821,0,0,0-1.723,3.8,52.37,52.37,0,0,1-5.048,8.145,49.019,49.019,0,0,1-13.782,12.1c-12.9,7.642-27.829,8.517-41.935,3.754l4.633,2.7-21.132-21.132a10.66,10.66,0,0,0-14.849,0l-3.917,3.917h14.849a49.308,49.308,0,0,1-11.244-31.412c-.023-2.489,0-4.98,0-7.469V19a10.653,10.653,0,0,0-10.5-10.5H19.833A10.653,10.653,0,0,0,9.333,19V174.548c0,12.888-.425,25.92.761,38.765A190.252,190.252,0,0,0,61.389,326.657V311.808l-.2.2a10.661,10.661,0,0,0,0,14.849l41.5,41.515,66.562,66.58,15.207,15.211a10.66,10.66,0,0,0,14.849,0l53.955-53.955L261,388.475l-17.925-7.425v26.761a10.653,10.653,0,0,0,10.5,10.5H428a10.653,10.653,0,0,0,10.5-10.5v-234.1C438.5,160.2,417.5,160.173,417.5,173.708Z" transform="translate(308.281 -8.051)"/><polygon class="cls-1" points="565.114 129.449 446.614 129.449 446.614 130.963 328.114 12.43 328.114 10.949 446.614 10.949 565.114 129.449"/><path class="cls-2" d="M256.833,127h-118.5a10.653,10.653,0,0,0-10.5,10.5v1.514l17.925-7.425L41.728,27.531,27.258,13.057l3.075,7.425V19l-10.5,10.5h118.5l-7.425-3.075,104.03,104.03,14.47,14.47c9.568,9.568,24.422-5.277,14.849-14.849l-88.4-88.4L154.148,19.965c-3.385-3.385-7.229-8.648-11.769-10.561-5.63-2.372-14.112-.9-20.01-.9H19.833A10.653,10.653,0,0,0,9.333,19c0,8.1,7.568,13.4,12.857,18.69L49.9,65.411l65.56,65.578,15.445,15.45c6.43,6.432,17.925,1.676,17.925-7.425V137.5l-10.5,10.5h118.5C270.346,148,270.368,127,256.833,127Z" transform="translate(308.281 -8.051)"/><path class="cls-1" d="M493.833,137.5V315.25a177.75,177.75,0,0,1-355.5,0V137.5h118.5V315.25a59.25,59.25,0,0,0,118.5,0V137.5Z" transform="translate(308.281 -8.051)"/><path class="cls-2" d="M483.333,137.5V274.4c0,17.5.762,35.246-.392,52.731-2.586,39.172-19.762,76.92-47.221,104.987-27.554,28.164-65.049,46.375-104.3,49.731A169.366,169.366,0,0,1,217.045,450.1c-31.185-22.65-53.77-56.682-63.208-94.077-5.363-21.248-5-42.563-5-64.365V137.5l-10.5,10.5h118.5l-10.5-10.5v89.374c0,29.894-.724,59.887.016,89.774.8,32.5,24.944,61.781,57.333,67.2a70.629,70.629,0,0,0,77.861-44.585c4.955-12.92,4.29-26.545,4.29-40.079V243.259c0-34.549,1.018-69.269,0-103.8-.019-.65,0-1.3,0-1.954l-10.5,10.5h118.5c13.512,0,13.535-21,0-21h-118.5a10.653,10.653,0,0,0-10.5,10.5v84.383c0,30.943.221,61.894,0,92.836A49.381,49.381,0,0,1,325.562,363.1c-26.423,5.54-52.254-12.823-57.463-39.036-1.822-9.168-.766-20.115-.766-29.66V237.83c0-32.814.558-65.682,0-98.492-.01-.612,0-1.226,0-1.838a10.653,10.653,0,0,0-10.5-10.5h-118.5a10.653,10.653,0,0,0-10.5,10.5V278.6c0,19.483-1.014,39.459,1.372,58.835a188.261,188.261,0,0,0,367.608,30.649c7.036-24.017,7.52-48.3,7.52-73.016V137.5C504.333,123.988,483.333,123.965,483.333,137.5Z" transform="translate(308.281 -8.051)"/><polygon class="cls-1" points="802.114 129.449 683.614 129.449 683.614 130.963 565.114 12.43 565.114 10.949 683.614 10.949 802.114 129.449"/><path class="cls-2" d="M493.833,127h-118.5a10.653,10.653,0,0,0-10.5,10.5v1.514l17.925-7.425L278.728,27.531l-14.47-14.474,3.075,7.425V19l-10.5,10.5h118.5l-7.425-3.075,104.03,104.03,14.47,14.47c9.568,9.568,24.422-5.277,14.849-14.849l-88.4-88.4L391.148,19.965c-3.385-3.385-7.229-8.648-11.769-10.561-5.63-2.372-14.112-.9-20.01-.9H256.833a10.653,10.653,0,0,0-10.5,10.5c0,8.1,7.568,13.4,12.857,18.69L286.9,65.411l65.56,65.578,15.445,15.45c6.43,6.432,17.925,1.676,17.925-7.425V137.5l-10.5,10.5h118.5C507.346,148,507.368,127,493.833,127Z" transform="translate(308.281 -8.051)"/></svg>