<svg
  id="Слой_1"
  data-name="Слой 1"
  xmlns="http://www.w3.org/2000/svg"
  viewBox="0 0 501.089 501.348"
><defs><style>.cls-1{fill:#231f20;}.cls-2{fill:#fff;}</style></defs><title
  >logo</title><path
    class="cls-1"
    d="M406.75,176.771V406.429l18-18H253.636l18,18V380.176c0-15.587-19.7-23.759-30.728-12.728l-52.957,52.957-7.558,7.558H205.85l-40.68-40.691-65.287-65.3L84.918,307v25.456l.194-.194c7.013-7.02,6.693-18.373,0-25.456-2.861-3.027-5.639-6.128-8.29-9.341-.538-.652-4.2-5.443-2.024-2.492-1.549-2.1-3.089-4.2-4.564-6.353a173.453,173.453,0,0,1-13-22.4c-.919-1.9-1.749-3.833-2.652-5.736-1.192-2.512.967,2.522-.041-.075-.383-.986-.79-1.963-1.172-2.95q-2.445-6.321-4.391-12.82-1.842-6.166-3.226-12.458-.695-3.167-1.273-6.359-.289-1.6-.549-3.21c-.066-.409-.719-5.728-.279-1.694-1.472-13.476-1.317-26.866-1.317-40.387V25l-18,18h116.25l-18-18V190.871c0,2.811-.03,5.625,0,8.436.2,19.068,7.171,36.169,19.319,50.674,6.249,7.461,19.051,6.4,25.456,0l3.843-3.843H145.745l18.484,18.484c5.893,5.893,13.3,8.381,21.452,9.644a78.948,78.948,0,0,0,33.352-1.508,77.14,77.14,0,0,0,44.873-34.086c3.877-6.364,7.536-13.816,7.731-21.337.1-3.992,0-8,0-12V176.771l-18,18h3.2a18.262,18.262,0,0,0,18-18V25l-18,18h116.25l-18-18V176.771a18.262,18.262,0,0,0,18,18H424.75c9.415,0,18.435-8.279,18-18-.437-9.752-7.909-18-18-18H373.083l18,18V25a18.262,18.262,0,0,0-18-18H256.833a18.262,18.262,0,0,0-18,18V176.771l18-18h-3.2a18.262,18.262,0,0,0-18,18c0,13.663-.886,27.617,0,41.246.077,1.178-.59,3.749.173-3.1q-1.108,2.821.227-.471-.572,1.251-1.2,2.473a61.829,61.829,0,0,1-5.068,8.106c2.762-3.782-.921.883-1.563,1.563q-1.869,1.976-3.916,3.773c-.8.7-4.168,2.98-.612.582-1.513,1.02-2.993,2.064-4.567,2.992s-3.211,1.743-4.852,2.561c-4,1.992,3.478-1.04-.81.288a75.216,75.216,0,0,1-10.884,2.722c4.511-.693.123-.13-.936-.078-2.218.11-4.408-.024-6.623-.045q-3.329-.335-.65.041-1.778-.282-3.535-.674a66.671,66.671,0,0,1-6.83-1.965l7.943,4.629L171.2,220.682a18.275,18.275,0,0,0-25.456,0l-3.843,3.843h25.456c-.466-.557-1.941-2.7-.074,0-.442-.639-.9-1.265-1.331-1.91-1.012-1.508-1.957-3.06-2.823-4.656-.745-1.373-1.445-2.779-2.069-4.211.313.719,1.088,3.117.083-.094-.316-1.009-.666-2.005-.958-3.023-.515-1.8-.776-3.661-1.276-5.454-.552-1.978,0,.421.043.779q-.131-1.222-.218-2.447c-.1-1.441-.137-2.88-.151-4.324-.024-2.4,0-4.8,0-7.2V25a18.262,18.262,0,0,0-18-18H24.333a18.262,18.262,0,0,0-18,18V177.522c0,12.522-.413,25.183.709,37.665A195.135,195.135,0,0,0,59.655,332.26V306.8l-.194.194a18.276,18.276,0,0,0,0,25.456l40.68,40.691,65.287,65.3,14.965,14.969a18.275,18.275,0,0,0,25.456,0l52.957-52.957,7.558-7.558-30.728-12.728v26.253a18.262,18.262,0,0,0,18,18H424.75a18.262,18.262,0,0,0,18-18V176.771c0-9.415-8.279-18.435-18-18C415,159.208,406.75,166.68,406.75,176.771Z"
    transform="translate(-6.259 -6.671)"
  /><polygon
    class="cls-2"
    points="250.574 134.579 134.324 134.579 134.324 136.064 18.074 19.782 18.074 18.329 134.324 18.329 250.574 134.579"
  /><path
    class="cls-1"
    d="M256.833,123.25H140.583a18.262,18.262,0,0,0-18,18v1.485l30.728-12.728L51.3,27.969,37.061,13.725l5.272,12.728V25l-18,18h116.25l-12.728-5.272L229.866,139.738l14.239,14.239c6.667,6.667,18.88,7.164,25.456,0,6.6-7.186,7.115-18.341,0-25.456L182.617,41.578,161.28,20.241c-4.558-4.558-9.493-10.831-15.912-12.6C139.156,5.932,131.45,7,125.139,7H24.333a18.262,18.262,0,0,0-18,18c0,10.966,8.026,16.936,15.025,23.936L48.636,76.222l64,64.02,15.217,15.221c11.023,11.026,30.728,2.872,30.728-12.728V141.25l-18,18h116.25c9.415,0,18.435-8.279,18-18C274.4,131.5,266.924,123.25,256.833,123.25Z"
    transform="translate(-6.259 -6.671)"
  /><path
    class="cls-2"
    d="M489.333,141.25V315.625a174.375,174.375,0,0,1-348.75,0V141.25h116.25V315.625a58.125,58.125,0,0,0,116.25,0V141.25Z"
    transform="translate(-6.259 -6.671)"
  /><path
    class="cls-1"
    d="M471.333,141.25V275.074c0,17.18.727,34.574-.353,51.737q-.261,4.142-.72,8.268a21.534,21.534,0,0,0-.325,2.731l.276-2.067q-.194,1.354-.409,2.7-1.278,8.034-3.306,15.927-1.755,6.815-4.056,13.473-1.2,3.461-2.538,6.869c-.324.823-1.759,5.083-.206.608-.429,1.238-1.067,2.442-1.61,3.631a174.249,174.249,0,0,1-14.909,26.292c-1.238,1.8-2.539,3.549-3.811,5.324-2.612,3.643,2.448-2.974-.373.507-.686.847-1.362,1.7-2.054,2.543q-4.774,5.8-10.032,11.18-5.023,5.137-10.456,9.851-2.468,2.142-5.015,4.19c-.669.538-4.261,3.182-.482.4-1.406,1.034-2.8,2.084-4.223,3.1a174.385,174.385,0,0,1-24.853,14.72,68.876,68.876,0,0,1-7.218,3.3c.495-.172,3.679-1.471.626-.285-1.239.481-2.471.979-3.716,1.447q-7.509,2.826-15.259,4.948-6.847,1.871-13.829,3.181a57.06,57.06,0,0,1-7.4,1.224c4.865-.247.272-.055-.664.049q-2.058.228-4.12.408a176.68,176.68,0,0,1-32.045-.125c-1.371-.13-8.4-.585-3.407-.332a53.3,53.3,0,0,1-6.735-1.1q-7.976-1.462-15.792-3.666-7.075-2-13.964-4.588c-1.089-.41-7.673-2.787-3.09-1.162a79.182,79.182,0,0,1-8.4-3.881,174.442,174.442,0,0,1-24.732-14.9c-1.062-.766-2.1-1.558-3.158-2.333,3.394,2.5.857.681.029,0-1.857-1.517-3.715-3.027-5.526-4.6q-5.92-5.137-11.366-10.789-4.533-4.7-8.707-9.738c-.835-1.007-1.646-2.031-2.47-3.047-2.822-3.481,2.239,3.136-.373-.507-1.527-2.13-3.08-4.235-4.55-6.406a174.192,174.192,0,0,1-14.716-26.416c-.354-.791-.785-1.613-1.065-2.426,1.541,4.475.119.217-.206-.608q-1.22-3.1-2.32-6.238-2.659-7.592-4.6-15.41-1.8-7.241-2.976-14.62c-.146-.916-1.134-5.417-.133-.637-.182-.87-.228-1.859-.325-2.731q-.5-4.47-.761-8.962c-.24-4.044-.309-8.092-.312-12.142q-.007-10.8,0-21.6V141.25l-18,18h116.25l-18-18v87.687c0,29.328-.73,58.759.016,88.08.892,35.034,26.669,67.3,61.763,73.308,37.084,6.352,72.36-13.738,85.878-48.813,5.165-13.4,4.593-27.555,4.593-41.6v-54.6c0-34.04.689-68.158,0-102.192-.013-.623,0-1.248,0-1.872l-18,18h116.25c9.415,0,18.435-8.279,18-18-.437-9.752-7.909-18-18-18H373.083a18.262,18.262,0,0,0-18,18v83.2c0,30.231.224,60.471,0,90.7,0,.158,0,.316,0,.474-.014,1.386-.047,2.771-.146,4.154a14.649,14.649,0,0,1-.256,2.724c1.225-4.113.12-1.232-.106-.112-.5,2.492-1.037,7.616-2.8,9.554,1.683-1.851,1.052-2.21.26-.683-.4.774-.76,1.568-1.166,2.339a58.107,58.107,0,0,1-2.99,5.033c-.477.719-1.028,1.4-1.482,2.129-1.093,1.757.842-1.1.837-1.079-.394,1.263-2.543,2.927-3.451,3.856-1.212,1.239-2.522,2.346-3.778,3.535-.748.708-1.986,2.4.61-.388a14.728,14.728,0,0,1-2.653,1.864c-2.4,1.6-5.7,4.111-8.564,4.7.422-.087,3.82-1.36.641-.34-.84.269-1.662.583-2.505.847q-2.544.8-5.156,1.354a10.743,10.743,0,0,1-2.645.5c2.336.552,2.625-.223.742-.119-1.843.1-3.669.257-5.517.259-1.613,0-3.226-.07-4.834-.2-.681-.056-3.553-.583-.991-.069,2.782.559-1.029-.248-1.6-.37-1.737-.373-3.46-.824-5.156-1.354-.829-.259-5.047-1.744-2.8-.909,2.367.88-.264-.132-.843-.427-.776-.4-1.558-.777-2.324-1.191a58.13,58.13,0,0,1-5-3.038,12.8,12.8,0,0,1-2.112-1.505c.291.324,3.011,2.608.61.388-1.11-1.027-2.249-2.006-3.32-3.077-1.212-1.212-2.26-2.64-3.493-3.817-1.453-1.386.766,1.073.8,1.106a17.555,17.555,0,0,1-2.223-3.194q-1.238-1.912-2.321-3.918c-.415-.766-.8-1.548-1.191-2.324-.3-.579-1.307-3.21-.427-.843.834,2.246-.65-1.972-.909-2.8a57.714,57.714,0,0,1-1.487-5.815c-.915-4.538.079,2.74-.306-1.928-.133-1.61-.186-3.219-.2-4.834,0-.18,0-.36,0-.54-.008-1.25,0-2.5,0-3.75V239.889c0-32.248.377-64.521,0-96.767-.007-.624,0-1.248,0-1.872a18.262,18.262,0,0,0-18-18H140.583a18.262,18.262,0,0,0-18,18V279.294c0,18.913-1.009,38.334,1.231,57.153,5.3,44.53,25.006,86.234,57.449,117.491a194.607,194.607,0,0,0,118.361,53.4,190.854,190.854,0,0,0,124.2-33.153C460,448.892,487.092,412.225,499.6,369.775c7.16-24.3,7.732-48.958,7.732-73.976V141.25c0-9.415-8.279-18.435-18-18C479.581,123.687,471.333,131.159,471.333,141.25Z"
    transform="translate(-6.259 -6.671)"
  /><polygon
    class="cls-2"
    points="483.074 134.579 366.824 134.579 366.824 136.064 250.574 19.782 250.574 18.329 366.824 18.329 483.074 134.579"
  /><path
    class="cls-1"
    d="M489.333,123.25H373.083a18.262,18.262,0,0,0-18,18v1.485l30.728-12.728L283.8,27.969,269.561,13.725l5.272,12.728V25l-18,18h116.25l-12.728-5.272L462.366,139.738l14.239,14.239c6.667,6.667,18.88,7.164,25.456,0,6.6-7.186,7.115-18.341,0-25.456L415.117,41.578,393.78,20.241c-4.558-4.558-9.493-10.831-15.912-12.6C371.656,5.932,363.95,7,357.639,7H256.833a18.262,18.262,0,0,0-18,18c0,10.966,8.026,16.936,15.025,23.936l27.278,27.286,64,64.02,15.217,15.221c11.023,11.026,30.728,2.872,30.728-12.728V141.25l-18,18h116.25c9.415,0,18.435-8.279,18-18C506.9,131.5,499.424,123.25,489.333,123.25Z"
    transform="translate(-6.259 -6.671)"
  /></svg>
